<svg xmlns="http://www.w3.org/2000/svg" width="64" height="64" id="apple"><path d="M40.628 11.048c2.024-2.611 3.558-6.304 3.003-10.073-3.309.23-7.173 2.346-9.429 5.104-2.057 2.5-3.747 6.216-3.086 9.826 3.616.113 7.348-2.054 9.512-4.857z"></path><path fill="#1B546B" d="M56.705 21.793c-3.175-3.984-7.64-6.293-11.856-6.293-5.564 0-7.919 2.664-11.783 2.664-3.987 0-7.015-2.656-11.828-2.656-4.729 0-9.764 2.89-12.955 7.83-4.486 6.959-3.721 20.037 3.554 31.179 2.601 3.988 6.074 8.468 10.619 8.509 4.045.04 5.186-2.594 10.667-2.624 5.479-.032 6.52 2.658 10.557 2.612 4.548-.036 8.214-5.002 10.814-8.99 1.864-2.856 2.56-4.297 4.007-7.523-10.524-4.003-12.211-18.965-1.796-24.708z"></path><path d="M50.322 29.485c-7.954 6.44-19.199 10.464-31.68 10.464-4.472 0-8.786-.518-12.846-1.476.687 5.226 2.645 10.842 6.042 16.043 2.601 3.988 6.074 8.468 10.619 8.509 4.045.04 5.186-2.594 10.667-2.624 5.479-.032 6.52 2.658 10.557 2.612 4.548-.036 8.214-5.002 10.814-8.99 1.864-2.856 2.56-4.297 4.007-7.523-7.156-2.72-10.22-10.503-8.18-17.015z"></path></svg>